HIERARCHY
ROOT joint_0
{
	OFFSET 0.000000 0.000000 0.000000
	CHANNELS 6 Xposition Yposition Zposition Zrotation Yrotation Xrotation 
	JOINT joint_1
	{
		OFFSET 1.363060 -1.794630 0.839290
		CHANNELS 3 Zrotation Yrotation Xrotation
		JOINT joint_2
		{
			OFFSET 2.448110 -6.726130 0.000000
			CHANNELS 3 Zrotation Yrotation Xrotation
			JOINT joint_3
			{
				OFFSET 2.562200 -7.039590 0.000000
				CHANNELS 3 Zrotation Yrotation Xrotation
				JOINT joint_4
				{
					OFFSET 0.157640 -0.433110 2.322550
					CHANNELS 3 Zrotation Yrotation Xrotation
					End Site
					{
						OFFSET 0.000000 0.000000 0.000000
					}
				}
			}
		}
	}
	JOINT joint_5
	{
		OFFSET -1.305520 -1.794630 0.839290
		CHANNELS 3 Zrotation Yrotation Xrotation
		JOINT joint_6
		{
			OFFSET -2.542530 -6.985550 0.000000
			CHANNELS 3 Zrotation Yrotation Xrotation
			JOINT joint_7
			{
				OFFSET -2.568260 -7.056230 0.000000
				CHANNELS 3 Zrotation Yrotation Xrotation
				JOINT joint_8
				{
					OFFSET -0.164730 -0.452590 2.363150
					CHANNELS 3 Zrotation Yrotation Xrotation
					End Site
					{
						OFFSET 0.000000 0.000000 0.000000
					}
				}
			}
		}
	}
	JOINT joint_9
	{
		OFFSET 0.028270 2.035590 -0.193380
		CHANNELS 3 Zrotation Yrotation Xrotation
		JOINT joint_10
		{
			OFFSET 0.056720 2.048850 -0.042750
			CHANNELS 3 Zrotation Yrotation Xrotation
			JOINT joint_11
			{
				OFFSET -0.054170 1.746240 0.172020
				CHANNELS 3 Zrotation Yrotation Xrotation
				JOINT joint_12
				{
					OFFSET 0.104070 1.761360 -0.123970
					CHANNELS 3 Zrotation Yrotation Xrotation
					End Site
					{
						OFFSET 0.000000 0.000000 0.000000
					}
				}
			}
			JOINT joint_13
			{
				OFFSET 3.362410 1.200890 -0.311210
				CHANNELS 3 Zrotation Yrotation Xrotation
				JOINT joint_14
				{
					OFFSET 4.983000 -0.000000 -0.000000
					CHANNELS 3 Zrotation Yrotation Xrotation
					JOINT joint_15
					{
						OFFSET 3.483560 -0.000000 -0.000000
						CHANNELS 3 Zrotation Yrotation Xrotation
						JOINT joint_16
						{
							OFFSET 0.000000 0.000000 0.000000
							CHANNELS 3 Zrotation Yrotation Xrotation
							End Site
							{
								OFFSET 0.000000 0.000000 0.000000
							}
						}
					}
				}
			}
			JOINT joint_17
			{
				OFFSET -3.136600 1.374050 -0.404650
				CHANNELS 3 Zrotation Yrotation Xrotation
				JOINT joint_18
				{
					OFFSET -5.241900 -0.000000 -0.000000
					CHANNELS 3 Zrotation Yrotation Xrotation
					JOINT joint_19
					{
						OFFSET -3.444170 -0.000000 -0.000000
						CHANNELS 3 Zrotation Yrotation Xrotation
						JOINT joint_20
						{
							OFFSET 0.000000 0.000000 0.000000
							CHANNELS 3 Zrotation Yrotation Xrotation
							End Site
							{
								OFFSET 0.000000 0.000000 0.000000
							}
						}
					}
				}
			}
		}
	}
}
MOTION
Frames: 15
Frame Time: 0.031667
-9.504039 13.213994 1.398569 -12.802456 78.930977 -3.364663 -19.459338 2.366638 -51.359970 -17.151140 29.411375 22.778536 1.978290 -9.808016 -29.454949 2.000651 -8.019586 -24.678663 -6.433283 -9.751356 -26.351742 -1.829981 -10.423648 43.286002 -7.498057 11.695766 15.762733 -2.225400 3.165863 47.184631 1.948532 -40.501940 27.217735 -3.983925 -5.231460 -4.304614 15.716293 -4.303493 5.207895 -2.521010 -2.076141 -25.699324 12.747785 -51.599169 -50.370443 16.099442 -23.486416 -12.753524 11.969837 16.630302 -7.106851 -7.847679 0.104134 0.136057 -12.227531 59.841380 -18.421005 -40.269591 19.986380 -39.756364 -10.082379 -4.548506 -1.624282 8.373305 -0.084771 0.028191 
-9.044865 13.234505 1.380784 -15.252708 78.662460 -5.019760 -21.124481 -2.342079 -38.812912 -17.270141 12.137913 22.443383 -8.667498 -4.098982 -16.599602 2.357270 9.602010 26.491084 -2.838842 -16.938225 -12.451097 -21.491826 -27.512426 57.858130 -3.154145 7.489803 3.605616 -4.755407 0.949493 46.715565 25.728314 -19.255219 -14.386533 -19.001828 -5.602605 -6.680186 12.325913 17.565545 14.241709 -2.235481 -2.404506 -24.070695 18.520683 -45.832962 -81.958189 14.978531 -17.812991 -4.608880 9.422640 -1.179247 4.963182 -7.936284 0.088841 0.114507 -33.759658 63.620021 -21.619214 -24.651881 9.252320 -36.252113 -10.104994 -4.444558 -1.062029 8.439826 -0.085323 0.017853 
-8.582102 13.253814 1.375227 -16.009581 78.725639 -5.274573 -1.377894 -25.285571 -52.890251 -5.801903 12.452016 37.763440 8.528927 -5.781481 -2.982755 1.676373 8.296108 22.037375 -4.827281 -6.073918 -2.833643 15.068457 -19.858829 55.200427 4.193678 6.095553 -7.601426 -7.255998 -7.126872 45.853165 18.143840 -26.947366 -35.278825 -8.309192 -0.527874 -5.107203 25.297868 5.285772 -5.607025 -2.456064 -5.278689 -23.257914 22.439457 -52.453735 -49.408984 49.597111 -23.000074 -31.741697 22.470674 -3.108653 27.564527 -8.165845 0.071015 0.107555 0.071425 52.905731 4.936382 -14.276124 21.561730 -34.466262 -11.923696 -14.717253 -3.235381 8.682007 -0.094284 0.013174 
-8.108243 13.300405 1.390545 -14.743326 79.047958 -3.570675 -36.114914 11.973158 -42.438818 -22.082616 14.166549 33.446898 -11.271116 15.598212 -1.412311 1.311416 -7.041207 -21.117250 -2.275327 -4.752340 -3.598636 -21.457955 -10.098394 56.331462 3.477018 7.645499 -7.329995 -6.682100 -10.511249 41.676892 33.479643 23.507520 -8.238230 -20.833627 -2.130033 -13.925663 -1.200459 0.706156 -1.874060 -2.119650 -7.839594 -21.258656 -10.272051 -30.943925 -34.391862 38.062630 -28.061391 -31.686388 14.007526 4.178701 4.593313 -8.470298 0.053954 0.100405 8.265130 49.975344 19.480259 -20.282943 24.531534 -43.723757 -7.765721 -2.110064 -0.891217 9.051887 -0.106153 0.008396 
-7.625435 13.354099 1.398971 -12.545284 79.557106 -1.045868 -34.720526 11.715781 -61.035755 -6.237404 27.505075 55.393598 -0.804985 -0.028886 0.424558 2.282718 13.830664 16.653737 -1.751828 4.787524 1.726847 -13.060197 -6.551746 64.725778 10.924880 4.159663 -10.701237 -7.977986 -9.017778 39.959450 -2.430997 14.820736 -19.990803 -10.275071 -12.505700 -3.250765 5.137757 -0.911149 5.661041 -2.916395 -8.367244 -18.899618 -4.860406 -58.056687 -58.707255 45.865569 -35.000496 -49.415928 4.640667 -13.817571 7.324260 -8.725158 0.066131 0.110583 -4.222138 54.708947 -0.232648 -38.346144 14.382604 -54.503054 -14.648223 -0.604513 -3.710608 9.386994 -0.124591 -0.003804 
-7.136471 13.432327 1.396847 -12.834898 80.075310 -0.522212 -10.836590 19.394443 -36.596932 -12.065413 42.181861 15.806125 -1.009439 -3.333976 11.752260 0.880265 5.962160 15.820757 9.729473 23.582232 9.817720 -23.197959 -32.104539 75.123156 -0.604483 4.197504 7.877419 -6.179988 16.372449 -33.877639 13.375620 16.370506 -6.896620 -11.307365 5.721377 -7.550493 8.769774 -8.027955 16.484676 4.552443 -10.630386 -19.229319 -34.952075 -20.182257 -14.579977 19.127069 -10.090348 -30.802787 -8.835837 -23.707246 -0.902739 -9.224028 0.132842 0.161373 1.211050 44.789282 13.718796 -5.312110 7.497278 -21.689649 8.703227 0.797753 0.227188 10.026557 -0.122944 0.026963 
-6.670526 13.501952 1.377144 -15.472880 80.590347 -2.654320 -23.484766 21.655591 -38.578177 -0.910061 13.594576 39.046085 1.535357 3.554576 -8.796117 1.111216 -5.284610 -19.035085 2.022822 3.032743 5.782699 1.850592 -31.663355 42.962965 1.892903 -2.189440 0.296789 -3.693340 -4.692223 39.310992 -27.137515 20.711142 -1.423277 0.299914 -2.618029 -3.936005 8.769168 -6.009040 15.231669 9.143176 -7.300502 -18.490550 -5.742666 -9.275323 -1.941285 58.756924 -33.702117 -44.989515 7.252053 -5.634169 -19.364656 -9.540828 0.129019 0.169585 -14.575579 38.095962 -34.237420 -25.291321 11.547844 -52.277241 10.615497 -2.680868 2.348416 10.361573 -0.133242 0.029289 
-6.211817 13.555721 1.369746 -18.887506 81.359276 -5.776923 -11.168748 7.300633 -24.806342 0.502348 20.248018 30.038948 0.382201 13.354855 -0.202020 1.471150 7.559546 16.473381 -0.080425 0.335545 4.677932 -24.400461 -13.402876 74.089124 -5.771389 3.192242 -11.256867 -1.371727 -3.165340 40.317090 13.569074 8.916728 29.462527 8.562153 -5.662450 -15.157511 0.093317 -12.731262 14.404139 14.325862 -2.041715 -13.050014 1.318168 2.326472 1.742632 49.935188 -11.963766 -29.153645 -0.551861 -16.764517 -4.576913 -9.785395 0.172476 0.200089 -1.963440 42.097455 -9.828678 -20.100735 21.333026 -37.735200 -15.398896 -16.529588 -2.755558 10.653851 -0.131659 0.040024 
-5.754084 13.606577 1.388607 -22.488663 82.385277 -9.056768 18.148177 2.640775 -50.976238 -17.462654 40.851891 32.976258 -11.501124 22.360442 -1.864827 1.364742 -3.573678 -18.894253 -4.588122 -4.252689 -2.409714 7.145907 -7.671189 45.313111 1.070718 0.207628 -0.041746 2.521162 4.061451 39.999567 -13.710306 5.067533 19.995413 -0.248981 -0.608582 -1.357825 -3.771280 15.267018 15.690311 15.598559 4.006231 -12.636849 4.138904 3.091489 1.751274 26.173134 -22.046802 -24.590315 -0.786623 -4.091133 -24.629170 -10.092904 0.206548 0.243793 -14.438363 40.548453 -24.442949 -7.292462 -1.494566 -33.496643 -4.974960 -2.117346 0.833393 10.923599 -0.110441 0.088066 
-5.301321 13.663393 1.430833 -25.437986 83.286415 -11.655134 -3.254585 -2.567966 -21.051496 -9.306577 20.913453 20.126756 0.489643 3.128874 -0.639463 3.168753 11.452959 20.419309 -5.406727 -7.674550 15.181439 13.438478 6.889665 40.160098 -2.929961 -0.583769 3.524173 -1.354578 -4.156588 42.088661 -22.454395 4.832652 31.234235 -3.196197 -2.512990 -9.580415 1.689285 -7.600252 3.314341 19.667727 0.868459 -11.489652 0.992893 1.961817 0.299961 41.249071 -21.140305 -36.385772 19.738336 -11.023257 -29.664776 -10.121086 0.190532 0.231876 -29.728837 47.320903 -41.234281 -22.186552 4.298149 -46.597962 -7.124710 -1.865480 0.021746 10.885835 -0.112092 0.074371 
-4.854264 13.730706 1.477207 -27.362179 84.278252 -13.071217 -16.984881 -6.469226 -34.600944 -26.326336 16.643738 42.644701 0.250335 1.294062 -2.168200 3.418143 11.837445 23.405394 5.154789 -12.966398 -12.691899 -0.409089 -27.230413 54.254225 0.338802 1.103584 -0.042671 -3.191020 -8.245819 43.600357 -10.168941 6.014038 -4.407442 -25.929718 -9.882328 -11.427690 -0.679698 23.024330 16.074360 19.279935 0.009605 -11.473377 -10.777840 -28.077014 -6.072653 11.295603 -13.118670 -10.049241 -5.970775 21.623227 -32.652085 -10.048967 0.164743 0.193509 1.868065 57.894182 7.808968 -30.978175 11.595470 -28.021048 -3.795159 -3.535464 -0.713652 10.693264 -0.105460 0.060221 
-4.434174 13.791907 1.522553 -32.812950 85.215744 -18.129774 -2.014301 8.697987 -44.792016 -39.624020 13.070917 51.089296 -9.117875 -6.977002 -4.055752 2.790677 10.622166 23.065229 7.711213 -5.289959 -12.673173 15.062251 -26.326141 41.125496 5.345257 5.274680 2.858356 -3.700814 -9.209821 41.493039 4.914795 6.810868 -29.473090 -19.074304 -20.228709 -3.910441 30.520921 -11.325922 -7.380850 18.443575 -1.980067 -9.551802 -0.462608 -40.263337 -11.749607 43.355621 -17.335031 -37.034905 6.315255 -8.811162 -2.184629 -9.976174 0.136830 0.153332 -28.201398 46.160177 -24.722741 -25.343228 6.079130 -49.346303 -7.729734 -7.073458 1.435631 10.551464 -0.100679 0.036067 
-4.034414 13.848228 1.565736 -39.149872 85.516022 -24.179087 -21.481085 4.548268 -21.789928 0.338150 30.338928 50.393375 0.182375 0.717485 0.317658 1.990518 -7.782354 -25.525044 0.662534 -1.245160 -2.529911 7.697043 -26.335683 74.707948 -0.260968 0.835145 1.797251 -3.197364 -7.380227 41.660978 -6.155870 -9.483042 -24.252343 -6.741585 -0.508827 -11.823021 7.408806 -10.140198 18.240850 17.048750 1.070951 -10.426982 0.173618 -51.116849 -12.546749 29.766786 -15.338904 -38.588996 -12.120125 -15.504995 4.159822 -9.914929 0.123262 0.119890 -21.876119 53.814000 -0.511381 -29.318315 4.264815 -27.534672 -0.150613 -0.133944 -0.069116 10.441364 -0.087968 0.015755 
-3.661366 13.910210 1.598949 -50.529392 85.616112 -35.274521 -7.863953 0.479377 -39.274803 4.684877 30.420622 78.292279 -1.415036 0.341402 2.183097 2.427206 -7.578852 -29.559912 -3.283519 3.573212 3.377552 3.075150 -35.418094 56.553362 2.153928 -0.588884 -3.288489 -3.894311 -9.610269 40.390477 -12.055128 22.422598 -22.928940 -10.699484 4.250392 -27.255915 8.092146 22.624834 11.562699 15.222921 1.022254 -12.999992 -1.853974 -41.089730 -12.662422 28.286289 -29.063149 -41.017498 -10.905887 -30.691418 5.056623 -9.773994 0.107043 0.104900 -10.883954 55.532860 4.241557 -26.826856 7.678736 -37.653029 -13.419343 -11.050636 -0.042206 10.274444 -0.078672 0.003988 
-3.304685 13.968498 1.626381 -61.906971 85.509636 -46.461094 -3.286501 -1.214616 -24.115331 -29.821361 38.665992 36.689986 7.746034 -10.749938 -5.191865 2.965405 -9.496528 -31.933311 2.848964 -2.496058 -4.021132 0.899384 -13.610569 69.403304 2.742866 2.601799 -9.637195 -3.403185 -8.492466 38.796415 3.172124 6.747016 -23.310983 -2.444621 -24.782016 -26.216850 14.030260 -20.998051 -17.221443 13.776108 -1.102683 -15.603261 7.124786 -51.219247 -34.401989 50.789968 -34.940373 -45.575329 -6.751850 -17.718834 5.929691 -9.747316 0.109148 0.104896 6.062813 51.392264 2.093013 -19.509242 9.340182 -41.719706 -2.088091 -5.812159 0.834261 10.250130 -0.070260 0.013102 
